# Blender v2.79 (sub 6) OBJ File: ''
# www.blender.org
mtllib cube2.mtl
o Cube
v 0.991312 -0.918389 -1.080922
v 0.991312 -0.918389 0.919078
v -1.008688 -0.918389 0.919078
v -1.008687 -0.918389 -1.080922
v 0.991313 1.081611 -1.080921
v 0.991312 1.081611 0.919079
v -1.008688 1.081611 0.919078
v -1.008687 1.081611 -1.080922
vt 0.000000 0.000000
vt 0.000000 0.000000
vt 0.000000 0.000000
vt 0.000000 0.000000
vt 0.999900 0.999899
vt 0.000100 0.999900
vt 0.000100 0.000100
vt 0.999899 0.000100
vt 0.000000 0.000000
vt 0.000000 0.000000
vt 0.999900 0.000100
vt 0.999900 0.999900
vt 0.000100 0.999900
vt 0.000100 0.000100
vt 0.000000 0.000000
vt 0.000000 0.000000
vn 0.0000 -1.0000 -0.0000
vn 0.0000 1.0000 0.0000
vn 1.0000 0.0000 0.0000
vn -0.0000 -0.0000 1.0000
vn -1.0000 -0.0000 -0.0000
vn 0.0000 0.0000 -1.0000
usemtl Material
s off
f 1/1/1 2/2/1 3/3/1 4/4/1
f 5/5/2 8/6/2 7/7/2 6/8/2
f 1/1/3 5/9/3 6/10/3 2/2/3
f 2/11/4 6/12/4 7/13/4 3/14/4
f 3/3/5 7/15/5 8/16/5 4/4/5
f 5/9/6 1/1/6 4/4/6 8/16/6
